<?xml version="1.0" encoding="utf-8"?>
<!-- Generator: Adobe Illustrator 22.1.0, SVG Export Plug-In . SVG Version: 6.00 Build 0)  -->
<svg version="1.1" id="Layer_1" xmlns="http://www.w3.org/2000/svg" xmlns:xlink="http://www.w3.org/1999/xlink" x="0px" y="0px"
	 viewBox="0 0 2000 2000" style="enable-background:new 0 0 2000 2000;" xml:space="preserve">
<style type="text/css">
	.st0{fill:#032034;}
	.st1{fill:none;}
	.st2{fill:#2096F2;}
	.st3{fill:#0B5D89;}
</style>
<g>
	<g>
		<g>
			<g>
				<path class="st0" d="M-1490.1,1241.3c3.6-0.4,7.7-0.8,12.3-1.3c4.6-0.4,8.7-0.6,12.3-0.6c8,0,16.4,0.6,25.2,1.9l49.4,178.6
					l50.1-178.6c4.2-0.6,8.2-1,12.1-1.3c3.9-0.2,7.8-0.3,11.8-0.3c3.8,0,7.6,0.1,11.5,0.3c3.9,0.2,7.9,0.6,12.1,1.3l-73.1,226.5
					c-4.4,0.6-8.7,1.1-12.8,1.4c-4.1,0.3-8.5,0.5-13.1,0.5c-4.2,0-8.3-0.2-12.3-0.5c-4-0.3-8.4-0.8-13.2-1.4L-1490.1,1241.3z"/>
				<path class="st0" d="M-1249.8,1400c0.8,12.6,5.2,21.7,13.2,27.4c8,5.7,18.5,8.5,31.5,8.5c7.1,0,14.4-0.7,21.9-2
					c7.4-1.4,14.5-3.3,21.3-5.8c2.3,4.2,4.3,9.2,6,15.1c1.7,5.9,2.6,12.2,2.8,18.9c-16.4,6.3-34.9,9.4-55.4,9.4
					c-15.1,0-28.1-2.1-38.9-6.3c-10.8-4.2-19.6-10-26.5-17.5c-6.8-7.5-11.9-16.3-15.1-26.6c-3.3-10.3-4.9-21.5-4.9-33.7
					c0-12,1.7-23.2,5-33.7c3.4-10.5,8.3-19.6,15-27.4c6.6-7.8,14.8-13.9,24.6-18.4c9.8-4.5,21.2-6.8,34.2-6.8c11.3,0,21.4,2,30.2,6
					c8.8,4,16.3,9.4,22.5,16.4c6.2,6.9,10.9,15.2,14,24.7c3.1,9.6,4.7,19.8,4.7,30.7c0,4-0.2,7.9-0.5,11.8c-0.3,3.9-0.7,7-1.1,9.3
					H-1249.8z M-1185.9,1368.8c-0.4-10.1-3.2-18.2-8.3-24.4c-5.1-6.2-12.3-9.3-21.6-9.3c-10.5,0-18.5,2.9-23.9,8.8
					c-5.5,5.9-8.7,14.2-9.8,24.9H-1185.9z"/>
				<path class="st0" d="M-1108.4,1304.9c2.9-0.6,5.9-1.1,8.8-1.4c2.9-0.3,6.2-0.5,9.8-0.5c3.6,0,6.7,0.2,9.4,0.5
					c2.7,0.3,5.6,0.8,8.5,1.4c0.6,1.1,1.2,2.6,1.7,4.6c0.5,2,1,4.1,1.4,6.3c0.4,2.2,0.8,4.4,1.1,6.5c0.3,2.1,0.6,3.9,0.8,5.4
					c2.1-3.1,4.6-6.3,7.6-9.4c2.9-3.1,6.3-6,10.2-8.5c3.9-2.5,8.2-4.6,13.1-6.1c4.8-1.6,10.2-2.4,16.1-2.4c18.5,0,32.4,5,41.7,15.1
					c9.3,10.1,14,25.9,14,47.6v103.9c-7.6,1.3-15,1.9-22.4,1.9c-7.4,0-14.8-0.6-22.4-1.9v-92c0-11.3-1.7-20-5.2-26.1
					c-3.5-6.1-9.5-9.1-18.1-9.1c-3.6,0-7.2,0.5-11,1.6c-3.8,1.1-7.2,3.1-10.2,6.1c-3,3-5.5,7.3-7.4,12.8c-1.9,5.5-2.8,12.6-2.8,21.4
					v85.4c-7.6,1.3-15,1.9-22.4,1.9c-7.4,0-14.8-0.6-22.4-1.9V1304.9z"/>
				<path class="st0" d="M-919.1,1338.9h-20.5l-1.6-6.3l58.9-75.3h7.2v47.6h38.1c0.6,3.1,1,6,1.3,8.5c0.2,2.5,0.3,5.1,0.3,7.9
					c0,2.9-0.1,5.8-0.3,8.5c-0.2,2.7-0.6,5.8-1.3,9.1H-875v63.9c0,6.5,0.5,11.8,1.6,15.7c1,4,2.6,7.1,4.6,9.4c2,2.3,4.5,3.9,7.4,4.7
					c2.9,0.8,6.4,1.3,10.4,1.3c3.1,0,6.2-0.3,9.3-0.8c3-0.5,5.7-1,8-1.4c1.5,4,2.5,8.1,3.2,12.4c0.6,4.3,0.9,8.1,0.9,11.5
					c0,2.3-0.1,4.3-0.2,5.8c-0.1,1.6-0.3,3.1-0.5,4.6c-9.7,2.3-19.6,3.5-29.9,3.5c-19.1,0-33.7-4.5-43.8-13.4
					c-10.1-8.9-15.1-23.5-15.1-43.6V1338.9z"/>
				<path class="st0" d="M-744.3,1241.3c1.3-0.2,3.2-0.4,5.7-0.5c2.5-0.1,4.8-0.2,6.9-0.2c1.9,0,4.1,0.1,6.6,0.2
					c2.5,0.1,4.5,0.3,6,0.5l43.8,202.2l52-202.2c1.3-0.2,3.3-0.4,6.1-0.5c2.8-0.1,5.2-0.2,7.1-0.2c1.7,0,4,0.1,6.9,0.2
					c2.9,0.1,5.1,0.3,6.6,0.5l51.7,202.2l44.4-202.2c1.7-0.2,3.5-0.4,5.5-0.5c2-0.1,3.9-0.2,5.8-0.2c2.1,0,4.4,0.1,6.8,0.2
					c2.4,0.1,4.3,0.3,5.5,0.5l-54.8,226.5c-1.5,0.2-3.7,0.4-6.6,0.5c-2.9,0.1-5.4,0.2-7.2,0.2c-2.1,0-4.7-0.1-7.7-0.2
					c-3-0.1-5.3-0.3-6.8-0.5l-50.7-197.2l-50.4,197.2c-1.5,0.2-3.7,0.4-6.6,0.5c-2.9,0.1-5.4,0.2-7.2,0.2c-2.1,0-4.7-0.1-7.7-0.2
					c-3-0.1-5.3-0.3-6.8-0.5L-744.3,1241.3z"/>
				<path class="st0" d="M-428.1,1324.7h-20.2c-0.2-1-0.4-2.3-0.5-3.8c-0.1-1.5-0.2-3-0.2-4.7c0-1.7,0-3.4,0.2-5
					c0.1-1.7,0.3-3,0.5-4.1h40.9v160.6c-1.3,0.2-3,0.4-5.2,0.5c-2.2,0.1-3.9,0.2-5.2,0.2c-1.1,0-2.7-0.1-5-0.2
					c-2.3-0.1-4.1-0.3-5.4-0.5V1324.7z M-438.5,1267.7c-0.2-1.9-0.4-4.2-0.5-6.9c-0.1-2.7-0.2-5-0.2-6.9c0-1.7,0-3.8,0.2-6.3
					c0.1-2.5,0.3-4.6,0.5-6.3c1.9-0.2,4.2-0.4,6.9-0.5c2.7-0.1,5-0.2,6.9-0.2c1.7,0,3.8,0.1,6.3,0.2c2.5,0.1,4.6,0.3,6.3,0.5
					c0.2,1.7,0.4,3.8,0.5,6.3c0.1,2.5,0.2,4.6,0.2,6.3c0,1.9-0.1,4.2-0.2,6.9c-0.1,2.7-0.3,5-0.5,6.9c-1.7,0.2-3.8,0.4-6.3,0.5
					c-2.5,0.1-4.6,0.2-6.3,0.2c-1.9,0-4.2,0-6.9-0.2C-434.3,1268.1-436.6,1267.9-438.5,1267.7z"/>
				<path class="st0" d="M-344.6,1324.7H-372c-0.2-1-0.4-2.4-0.5-4.1c-0.1-1.7-0.2-3.4-0.2-5c0-1.7,0-3.3,0.2-4.7
					c0.1-1.5,0.3-2.7,0.5-3.8h27.4v-30.2l19.5-19.2h1.3v49.4h43.5c0.2,1.1,0.4,2.3,0.5,3.8c0.1,1.5,0.2,3,0.2,4.7
					c0,1.7-0.1,3.4-0.2,5c-0.1,1.7-0.3,3-0.5,4.1h-43.5v104.6c0,5.3,0.7,9.4,2,12.4c1.4,3,3.1,5.4,5.4,7.1c2.2,1.7,4.7,2.8,7.6,3.3
					c2.8,0.5,5.7,0.8,8.7,0.8c7.3,0,13.8-0.9,19.2-2.8c1.5,5.5,2.5,11.3,3.2,17.6c-7.6,2.3-16.4,3.5-26.5,3.5
					c-12,0-21.7-3.2-29.1-9.6c-7.5-6.4-11.2-16.9-11.2-31.3V1324.7z"/>
				<path class="st0" d="M-245.1,1236.2c1.3-0.2,3-0.4,5.2-0.5c2.2-0.1,3.9-0.2,5.2-0.2c1,0,2.7,0.1,5,0.2c2.3,0.1,4.1,0.3,5.4,0.5
					v99.5c2.1-3.8,4.8-7.6,8.2-11.5c3.4-3.9,7.2-7.4,11.7-10.6c4.4-3.1,9.4-5.7,15-7.6c5.6-1.9,11.7-2.8,18.4-2.8
					c18.5,0,32.1,5.5,40.8,16.5c8.7,11,13.1,26.5,13.1,46.5v101.4c-1.3,0.2-3,0.4-5.2,0.5c-2.2,0.1-3.9,0.2-5.2,0.2
					c-1.1,0-2.7-0.1-5-0.2c-2.3-0.1-4.1-0.3-5.4-0.5v-95.1c0-17.8-2.9-30.7-8.8-38.4c-5.9-7.8-14.4-11.7-25.5-11.7
					c-7.4,0-14.2,1.4-20.6,4.1c-6.4,2.7-11.9,6.8-16.5,12.1c-4.6,5.4-8.2,12.1-10.9,20.2c-2.6,8.1-3.9,17.4-3.9,27.9v80.9
					c-1.3,0.2-3,0.4-5.2,0.5c-2.2,0.1-3.9,0.2-5.2,0.2c-1.1,0-2.7-0.1-5-0.2c-2.3-0.1-4.1-0.3-5.4-0.5V1236.2z"/>
			</g>
		</g>
		<g>
			<g>
				<path class="st0" d="M-1205.4,1672.6c1.9,0.5,3.8,1.1,5.8,1.8c2,0.7,4.2,1.3,6.7,1.8c2.5,0.5,5.2,1,8.3,1.4
					c3.1,0.4,6.6,0.6,10.6,0.6c6.4,0,11.9-0.8,16.5-2.3c4.6-1.5,8.4-3.6,11.4-6.2c3-2.6,5.2-5.7,6.7-9.2c1.5-3.5,2.2-7.3,2.2-11.5
					c0-4-0.5-7.4-1.5-10.3c-1-2.9-2.7-5.5-5.2-7.9c-2.5-2.4-5.9-4.7-10.2-6.9c-4.3-2.2-9.7-4.6-16.3-7.1c-4.7-1.7-9.1-3.6-13.3-5.6
					c-4.2-2-7.9-4.4-11.1-7.3c-3.2-2.9-5.7-6.3-7.6-10.3c-1.9-4-2.8-9-2.8-15c0-10.8,3.9-19.5,11.7-26.1c7.8-6.6,19.1-10,34-10
					c2.9,0,5.9,0.1,8.9,0.4c3,0.3,5.8,0.6,8.4,1c2.6,0.4,5,0.9,7.2,1.4c2.2,0.5,4,1,5.3,1.4c-0.3,2-0.6,4-1.1,6.1
					c-0.5,2.1-1,4-1.7,5.9c-3.2-1.1-7.3-2-12.3-2.9c-5-0.9-9.9-1.3-14.9-1.3c-11,0-19,2.3-23.7,6.8c-4.8,4.5-7.2,10.2-7.2,17.2
					c0,3.6,0.7,6.7,2.2,9.4c1.5,2.7,3.5,5,6.1,7c2.6,2,5.7,3.8,9.3,5.5c3.6,1.7,7.4,3.3,11.6,4.9c5.6,2.3,10.8,4.6,15.7,7
					c4.9,2.4,9,5.2,12.5,8.4c3.5,3.2,6.2,7,8.2,11.3c2,4.3,3,9.5,3,15.7c0,6.9-1.2,13.1-3.7,18.5c-2.5,5.4-6,9.9-10.5,13.6
					c-4.5,3.7-10,6.5-16.6,8.4c-6.5,1.9-13.8,2.9-21.9,2.9c-7.8,0-14.4-0.6-19.5-1.7c-5.2-1.1-10-2.4-14.6-3.9
					c0.3-2,0.7-4.2,1.4-6.5C-1206.9,1676.6-1206.2,1674.5-1205.4,1672.6z"/>
				<path class="st0" d="M-1090.1,1598h-17.4c-0.1-0.7-0.2-1.5-0.3-2.6c-0.1-1.1-0.1-2.1-0.1-3.2c0-1.1,0-2.1,0.1-3
					c0.1-0.9,0.2-1.7,0.3-2.4h17.4v-19.1l12.4-12.2h0.8v31.3h27.5c0.1,0.7,0.2,1.5,0.3,2.4c0.1,0.9,0.1,1.9,0.1,3
					c0,1.1,0,2.1-0.1,3.2c-0.1,1.1-0.2,1.9-0.3,2.6h-27.5v66.2c0,3.3,0.4,6,1.3,7.9c0.9,1.9,2,3.4,3.4,4.5c1.4,1.1,3,1.8,4.8,2.1
					c1.8,0.3,3.6,0.5,5.5,0.5c4.7,0,8.7-0.6,12.2-1.8c0.9,3.5,1.6,7.2,2,11.2c-4.8,1.5-10.4,2.2-16.8,2.2c-7.6,0-13.7-2-18.5-6.1
					c-4.7-4.1-7.1-10.7-7.1-19.8V1598z"/>
				<path class="st0" d="M-1027.1,1586.8c1.1-0.1,2.1-0.2,3.1-0.3c1-0.1,2-0.1,2.9-0.1c1.1,0,2.1,0,3,0.1c0.9,0.1,1.9,0.2,3,0.3
					c0.3,2.4,0.5,5.2,0.6,8.5c0.1,3.3,0.2,6.2,0.2,8.9c2.7-4.9,6.4-9.1,11.2-12.5c4.8-3.4,11.1-5.1,19-5.1c0.7,0,1.4,0,2.1,0
					c0.7,0,1.6,0.1,2.5,0.2c0.4,2.3,0.6,4.4,0.6,6.4c0,2.1-0.2,4.2-0.6,6.2c-1.1-0.1-1.9-0.2-2.5-0.2c-0.6,0-1.2,0-1.9,0
					c-9,0-16.3,2.9-21.7,8.6c-5.5,5.7-8.2,15.2-8.2,28.5v52.3c-0.8,0.1-1.9,0.2-3.3,0.3c-1.4,0.1-2.5,0.1-3.3,0.1
					c-0.7,0-1.7,0-3.2-0.1c-1.5-0.1-2.6-0.2-3.4-0.3V1586.8z"/>
				<path class="st0" d="M-903.2,1621.4c0-8.8-2.1-15.2-6.2-19.2c-4.1-4.1-10.2-6.1-18.4-6.1c-5.3,0-10.2,0.4-14.6,1.1
					c-4.4,0.7-8.3,1.6-11.8,2.7c-0.7-1.2-1.2-2.9-1.7-5.2c-0.5-2.3-0.7-4.4-0.7-6.4c3.5-1.1,7.7-2,12.8-2.7
					c5.1-0.7,10.2-1.1,15.6-1.1c12.9,0,22.5,2.8,28.7,8.5c6.2,5.7,9.4,14.5,9.4,26.6v67.2c-4.7,0.9-10.3,1.9-17,2.8
					c-6.7,0.9-13,1.4-19,1.4c-12.4,0-22.1-2.5-29.2-7.4c-7.1-4.9-10.7-12.9-10.7-23.9c0-5.3,1-10.1,3.1-14.3
					c2.1-4.2,4.9-7.7,8.6-10.6c3.7-2.9,8-5,13.2-6.5c5.1-1.5,10.7-2.2,16.9-2.2c4.8,0,8.9,0.2,12.4,0.5c3.5,0.3,6.3,0.6,8.6,0.9
					V1621.4z M-903.2,1639.1c-2.3-0.3-5.1-0.6-8.5-0.9c-3.4-0.3-6.6-0.5-9.7-0.5c-10,0-17.7,1.9-23.1,5.6c-5.5,3.7-8.2,9-8.2,16
					c0,4.4,0.8,7.9,2.5,10.6c1.7,2.7,3.8,4.7,6.5,6.1c2.7,1.4,5.6,2.3,8.8,2.8c3.2,0.5,6.4,0.7,9.6,0.7c4.1,0,8-0.2,11.6-0.6
					c3.6-0.4,7.1-0.9,10.6-1.6V1639.1z"/>
				<path class="st0" d="M-856.9,1586.8c1.1-0.1,2.1-0.2,3.1-0.3c1-0.1,2-0.1,2.9-0.1c1.1,0,2.1,0,3,0.1c0.9,0.1,1.9,0.2,3,0.3
					c0.3,2.4,0.5,5.4,0.6,9c0.1,3.6,0.2,6.7,0.2,9.4c1.3-2.4,3.1-4.8,5.2-7.3c2.1-2.5,4.6-4.7,7.5-6.7c2.9-2,6.2-3.6,9.9-4.9
					c3.7-1.3,7.8-1.9,12.2-1.9c11.7,0,20.2,3.5,25.5,10.5c5.3,7,8,16.8,8,29.4v64.2c-0.8,0.1-1.9,0.2-3.3,0.3
					c-1.4,0.1-2.5,0.1-3.3,0.1c-0.7,0-1.7,0-3.2-0.1c-1.5-0.1-2.6-0.2-3.4-0.3v-60.2c0-11.3-1.8-19.4-5.3-24.3
					c-3.5-4.9-8.8-7.4-15.9-7.4c-4.7,0-9,0.9-13.2,2.8c-4.1,1.9-7.7,4.6-10.7,8.1c-3,3.5-5.4,7.9-7.1,13.1
					c-1.7,5.2-2.6,11.1-2.6,17.8v50.3c-0.8,0.1-1.9,0.2-3.3,0.3c-1.4,0.1-2.5,0.1-3.3,0.1c-0.7,0-1.7,0-3.2-0.1
					c-1.5-0.1-2.6-0.2-3.4-0.3V1586.8z"/>
				<path class="st0" d="M-690.4,1678.4c11.7,0.3,20,2.7,25,7.3c5,4.6,7.5,10.7,7.5,18.3c0,5.2-1.3,9.9-4,14.1
					c-2.7,4.2-6.4,7.8-11.2,10.8c-4.8,3-10.5,5.3-17.1,7c-6.6,1.7-13.7,2.5-21.4,2.5c-6,0-11.5-0.5-16.5-1.4c-5-0.9-9.3-2.4-13-4.5
					c-3.7-2.1-6.5-4.8-8.5-8.2c-2-3.4-3-7.5-3-12.5c0-5.1,1.5-9.9,4.4-14.6c2.9-4.7,6.7-8.1,11.4-10.4c-2.5-1.6-4.7-3.6-6.4-6.1
					c-1.7-2.5-2.6-5.5-2.6-9.1c0-5.2,1.2-9.5,3.7-13c2.5-3.5,5.8-6.6,9.9-9.4c-4.7-2.9-8.4-6.8-11.2-11.8
					c-2.8-4.9-4.2-10.8-4.2-17.6c0-4.9,0.8-9.5,2.5-13.9c1.7-4.3,4.2-8.1,7.5-11.3c3.3-3.2,7.4-5.7,12.3-7.6
					c4.9-1.9,10.5-2.8,16.9-2.8c5.5,0,10.3,0.7,14.6,2.1s8,3.2,11.2,5.5c1.3-0.5,3-1.1,5-1.8c2-0.7,4.2-1.2,6.6-1.7
					c2.4-0.5,4.9-0.9,7.4-1.2c2.5-0.3,5-0.5,7.4-0.5c0.5,2,0.8,4.2,0.8,6.6c0,2.5-0.3,4.8-0.8,6.8h-19c1.9,2.9,3.3,6,4.3,9.3
					c1,3.3,1.5,6.8,1.5,10.5c0,5.7-1,10.8-3,15.2c-2,4.4-4.8,8.1-8.3,11.1c-3.5,3-7.6,5.3-12.4,6.9c-4.7,1.6-9.8,2.4-15.3,2.4
					c-5.7,0-10.7-0.7-15-2.2c-3.7,2.4-6.4,4.7-7.9,6.9c-1.5,2.2-2.3,4.7-2.3,7.5c0,1.3,0.2,2.6,0.6,3.8c0.4,1.2,1.2,2.3,2.5,3.3
					c1.3,1,3,1.8,5.3,2.4c2.3,0.6,5.2,0.9,8.8,0.9L-690.4,1678.4z M-718.7,1690.4c-6.3-0.1-11.3,1.6-15.1,5.3
					c-3.8,3.7-5.7,8.5-5.7,14.5c0,3.2,0.7,5.9,2.2,8c1.5,2.1,3.5,3.8,6.1,5c2.6,1.2,5.6,2,9.1,2.5c3.5,0.5,7.1,0.7,11,0.7
					c12.4,0,22-2.1,28.9-6.3c6.9-4.2,10.4-9.2,10.4-15.1c0-5.1-1.7-8.6-5.2-10.8c-3.5-2.1-9.1-3.3-17-3.4L-718.7,1690.4z
					 M-733.5,1620c0,6.9,2,12.7,6.1,17.5c4.1,4.7,10.4,7.1,19.1,7.1c8.6,0,15-2.4,19.2-7.1c4.1-4.7,6.2-10.5,6.2-17.5
					c0-6.9-2.1-12.7-6.2-17.5c-4.1-4.7-10.5-7.1-19.2-7.1c-8.6,0-15,2.4-19.1,7.1C-731.4,1607.2-733.5,1613-733.5,1620z"/>
				<path class="st0" d="M-629.5,1639.7c0,13.6,3.1,23.5,9.4,29.9c6.3,6.4,15.6,9.6,28.1,9.6c5.1,0,9.7-0.4,14.1-1.3
					c4.3-0.9,8.5-2,12.7-3.5c0.7,1.5,1.2,3.3,1.6,5.4c0.4,2.1,0.7,4.1,0.8,5.8c-3.9,1.7-8.4,3.1-13.6,4c-5.2,0.9-10.8,1.4-17,1.4
					c-8.8,0-16.3-1.3-22.6-3.9c-6.3-2.6-11.5-6.2-15.6-10.9c-4.1-4.7-7-10.2-9-16.7c-1.9-6.4-2.9-13.5-2.9-21.2
					c0-7.4,0.9-14.4,2.7-20.9c1.8-6.5,4.5-12.2,8.2-17.2c3.7-4.9,8.3-8.8,14.1-11.6c5.7-2.8,12.6-4.2,20.5-4.2
					c6.6,0,12.6,1.1,17.8,3.4c5.2,2.3,9.5,5.4,13.1,9.5c3.5,4.1,6.2,8.9,8,14.6c1.8,5.7,2.7,11.8,2.7,18.5c0,1.2,0,2.7-0.1,4.6
					c-0.1,1.9-0.2,3.5-0.3,4.8H-629.5z M-569.7,1628.7c0-4.1-0.5-8.2-1.6-12.2c-1.1-4-2.7-7.5-5-10.5c-2.3-3-5.2-5.4-8.8-7.3
					c-3.6-1.9-7.9-2.8-13-2.8c-9.3,0-16.6,2.9-21.7,8.6c-5.2,5.7-8.3,13.8-9.4,24.1H-569.7z"/>
				<path class="st0" d="M-527.6,1586.8c1.1-0.1,2.1-0.2,3.1-0.3c1-0.1,2-0.1,2.9-0.1c1.1,0,2.1,0,3,0.1c0.9,0.1,1.9,0.2,3,0.3
					c0.3,2.4,0.5,5.2,0.6,8.5c0.1,3.3,0.2,6.2,0.2,8.9c2.7-4.9,6.4-9.1,11.2-12.5c4.8-3.4,11.1-5.1,19-5.1c0.7,0,1.4,0,2.1,0
					c0.7,0,1.6,0.1,2.5,0.2c0.4,2.3,0.6,4.4,0.6,6.4c0,2.1-0.2,4.2-0.6,6.2c-1.1-0.1-1.9-0.2-2.5-0.2s-1.2,0-1.9,0
					c-9,0-16.3,2.9-21.7,8.6c-5.5,5.7-8.2,15.2-8.2,28.5v52.3c-0.8,0.1-1.9,0.2-3.3,0.3c-1.4,0.1-2.5,0.1-3.3,0.1
					c-0.7,0-1.7,0-3.2-0.1c-1.5-0.1-2.6-0.2-3.4-0.3V1586.8z"/>
				<path class="st0" d="M-462.8,1674.6c2.9,1.2,6.7,2.2,11.4,3.1c4.7,0.9,9.1,1.3,13.4,1.3c8,0,14.3-1.8,19-5.3
					c4.7-3.5,7-7.9,7-13.1c0-3.6-0.7-6.5-2.1-8.9c-1.4-2.3-3.3-4.3-5.6-5.9c-2.3-1.6-5-2.9-7.9-3.9c-2.9-1-5.9-2-9-3.1
					c-3.3-1.1-6.6-2.3-9.9-3.6c-3.3-1.3-6.2-3-8.7-5.1c-2.5-2.1-4.6-4.6-6.1-7.5c-1.5-2.9-2.3-6.6-2.3-11c0-8.1,3-14.7,8.9-19.7
					c5.9-5.1,15.1-7.6,27.4-7.6c5.2,0,10.2,0.5,15.1,1.4c4.9,0.9,8.6,1.9,11.3,3c-0.7,3.9-1.6,7.7-2.8,11.4
					c-2.8-0.9-6.4-1.9-10.7-2.8c-4.3-0.9-8.8-1.4-13.5-1.4c-8.1,0-13.9,1.4-17.3,4.3c-3.4,2.9-5.1,6.6-5.1,11.3
					c0,2.5,0.6,4.7,1.7,6.5c1.1,1.8,2.7,3.3,4.6,4.6c1.9,1.3,4.1,2.4,6.6,3.3c2.5,0.9,5.1,1.8,7.9,2.6c3.6,1.2,7.2,2.5,10.9,3.9
					c3.7,1.4,7,3.2,10,5.5c3,2.3,5.5,5.1,7.4,8.6c1.9,3.5,2.9,7.8,2.9,13c0,4.8-1,9.1-2.9,13.1c-1.9,3.9-4.6,7.2-8.1,10
					c-3.5,2.7-7.6,4.8-12.4,6.3c-4.8,1.5-10,2.2-15.8,2.2c-6.4,0-12.1-0.4-17.1-1.2c-5-0.8-9-1.9-12.1-3.2
					C-465.7,1682.6-464.5,1678.6-462.8,1674.6z"/>
			</g>
		</g>
	</g>
</g>
<path class="st1" d="M1137.2,674.8c0,0,0,0.1,0,0.2c0,0.1,0,0.1,0,0.1c0,0-1.1,0.3-3.3,0.7"/>
<g>
	<path class="st2" d="M1655.9,892.3c0,159.1-56.9,305.2-151.5,418.9c-34.1,41-73.1,77.8-116.1,109.5
		c79.6-131.8,88.9-248.6,88.9-248.6c11.8,15.8,21.9,29.5,21.9,29.5c3.6-162.5-94.6-265.9-97.6-269.1c-0.1-0.1-0.1-0.1-0.1-0.1
		s13.7-157.1-132.4-169.9C1123.1,749.8,1102,882.4,1102,882.4c-48.4-4.1-65.5,36.3-65.5,36.3c14.9-2.5,69.4-30.2,52.5,62.1
		c-0.6,3.3-1.3,6.8-2.1,10.5c-0.3,1.2-0.5,2.5-0.9,3.8c-0.3,1.2-0.5,2.4-0.9,3.7c-1,4.2-2.2,8.7-3.4,13.4c-1.1,4.2-2.4,8.5-3.8,13.1
		c-0.4,1.5-0.9,2.9-1.3,4.4c-0.4,1.5-0.9,3-1.3,4.5h-0.1c-1,3.1-2,6.3-3.1,9.7c-1,3.2-2.1,6.5-3.2,9.8c-1.2,3.6-2.5,7.3-3.9,11.1
		c-1.3,3.7-2.7,7.4-4.1,11.2c-11.8,32-16.3,61.9-15.5,89.6c0,1.1,0.1,2.2,0.1,3.2c0.1,1.5,0.1,2.9,0.2,4.3c0.1,0.2,0.1,0.4,0.1,0.6
		c0.1,1.8,0.3,3.7,0.4,5.5c0.3,2.9,0.6,5.8,1,8.6c0.2,1.6,0.4,3.1,0.7,4.7c0.4,2.5,0.8,4.9,1.2,7.4c0.3,1.7,0.7,3.5,1.1,5.2
		c1.8,8.4,4.1,16.5,6.7,24.5c1.1,3.3,2.3,6.6,3.5,9.8c1.3,3.5,2.7,7,4.2,10.4c1.2,2.7,2.4,5.4,3.7,8c0.4,0.9,0.8,1.8,1.2,2.6
		c1.2,2.5,2.4,4.9,3.7,7.3c1.5,2.9,3.1,5.8,4.7,8.6c1.6,2.8,3.2,5.6,4.9,8.4c0.1,0.2,0.2,0.3,0.3,0.5c1.3,2.2,2.7,4.4,4.1,6.6
		c3,4.7,6.1,9.2,9.3,13.7c2.8,4,5.8,8,8.7,11.8c4.9,6.3,9.9,12.4,14.9,18.2c1.1,1.3,2.2,2.6,3.3,3.9c17.1,19.5,34.5,36.3,49.4,50.8
		c1.7,1.7,3.4,3.3,5.1,4.8c1.4,1.3,2.7,2.7,4.1,4c0.8,0.7,1.5,1.5,2.2,2.2c1,0.9,1.9,1.8,2.8,2.7c1,0.9,1.9,1.9,2.8,2.8
		c4.6,4.5,8.7,8.8,12.2,12.7c1.4,1.6,2.6,3.1,3.8,4.5c3.5,4.4,6.1,8.3,7.4,11.7c4.3,11.2,0,41.4-8.4,80.2
		c-64.5,21.3-133.4,32.8-205,32.8c-53.4,0-105.4-6.5-155.2-18.6c-23.3-5.6-46.1-12.5-68.4-20.6c-3.2-33.4-3.6-58.7,1.3-68.1
		c20.8-40.5,241.3-131.7,188.8-338.9c-5.5-21.6-9.6-40.5-12.5-56.9c-0.1-0.1-0.1-0.1-0.1-0.2c-25.9-143.4,36.7-101.1,53.1-96.2
		c0,0-12.7-42.1-61.2-44c0,0-7.2-134.2-153.6-139.1c-146.5-4.9-149.2,153-149.2,153s-111.4,91.2-124.9,255.6
		c0,0,11.4-12.5,24.8-26.6c0,0-3.1,126.3,70.4,274.1c-163.1-119.4-269.1-312.2-269.1-529.4c0-361.7,294.2-655.9,655.9-655.9
		S1655.9,530.6,1655.9,892.3z"/>
	<g>
		<path class="st3" d="M953.8,1044.9c0,0,87.3,190.2-16.5,302.5c-51.9,56.1-84.7,87.8-95,109.3c-10.3,21.6,1.9,33,3.3,91.6
			c2.8,117.2-165.9-83.7-165.9-83.7l74.2-251.1L953.8,1044.9z"/>
		<path class="st3" d="M1401.5,932.4c0,0,148.8,87.5,133.8,317.6l-31-9c0,0,5.1,70.8-5.1,98.1L1364.9,1464l-15.4-214.7L1401.5,932.4
			z"/>
		<g>
			<circle class="st3" cx="1013.6" cy="588.7" r="46.9"/>
			<g>
				<circle class="st3" cx="797.2" cy="588.7" r="46.9"/>
				<circle class="st3" cx="1230" cy="588.7" r="46.9"/>
			</g>
		</g>
	</g>
	<circle class="st0" cx="1000" cy="575.1" r="45.6"/>
	<g>
		<g>
			<circle class="st0" cx="789.5" cy="575.1" r="45.6"/>
			<circle class="st0" cx="1210.5" cy="575.1" r="45.6"/>
		</g>
	</g>
	<path class="st1" d="M1081.8,1012.1c-5.8-1.1-11.5-2.4-17-3.9"/>
	<path class="st2" d="M1276.8,1003.7c-1.8,13.6-32.1,209.6-160.6,268.6c0,0,1.8-6.9,3.7-16.1c0,0-10.5,10.1-36.9,28.4
		c-6.8-11.1-13-22.7-18.3-35c36.1-20.9,67.1-46,93.4-72.1c-3.1,18.3-9.4,35.7-9.4,35.7C1250.1,1134.2,1274.9,1013.4,1276.8,1003.7z"
		/>
	<path class="st2" d="M1270.2,1005.2c-24.6,7.6-112.7,32.8-194.9,28.9c0.5-1.5,0.9-3,1.3-4.5c0.5-1.5,0.9-2.9,1.3-4.4
		c1.3-4.5,2.6-8.9,3.8-13.1C1158.5,1027.1,1245.9,1010.5,1270.2,1005.2z"/>
	<path class="st1" d="M1076.7,1029.6c-0.4,1.5-0.9,3-1.3,4.5h-0.1C1075.7,1032.6,1076.2,1031.1,1076.7,1029.6z"/>
	<path class="st0" d="M966.4,1102c52.5,207.2-168,298.4-188.8,338.9c-4.9,9.5-4.5,34.7-1.3,68.1c2.1,22.1,5.5,47.7,9.4,74.6
		c15.6,106.6,39.9,233.8,30.5,243.5c-15.4,15.8-97.8-20.5-106.7-20.3c-42.7,1-133.2-17.6-133.2-17.6s-56.2,10-74.1-15.9
		c-13.3-19.2,66.5-177.4,99.5-276.8c11.6-34.9,17.5-62.5,11.5-74.4c0-0.1-0.1-0.2-0.1-0.3c-73.5-147.7-70.4-274.1-70.4-274.1
		c-13.4,14.2-24.8,26.6-24.8,26.6c13.5-164.4,125-255.7,125-255.7s2.7-157.8,149.2-153c146.5,4.9,153.6,139.1,153.6,139.1
		c48.5,1.8,61.3,44,61.3,44C988.7,943.3,913,891.4,966.4,1102z"/>
	<path class="st0" d="M1276.9,1003.1c0,0,0,0.1-0.1,0.4c0,0.1,0,0.2-0.1,0.3c-1.9,9.7-26.7,130.5-128.1,209.5c0,0,6.3-17.4,9.4-35.7
		c-26.3,26.1-50.8,54.3-86.4,76c-144.7,87.9-254.5-3.4-281.4-48.4l43.6-209.7c0,0,117.1,32,239.7,38.5c0.5,0.1,1.1,0.1,1.7,0.1
		c82.1,3.9,170.3-21.2,194.9-28.9C1274.6,1003.9,1276.9,1003.1,1276.9,1003.1z"/>
	<circle class="st2" cx="892.5" cy="879" r="16.3"/>
	<path class="st0" d="M1511.5,380.9C1374.8,244.3,1193.2,169,1000,169c-193.2,0-374.9,75.3-511.5,211.9
		C351.9,517.5,276.7,699.1,276.7,892.3s75.2,374.9,211.8,511.5c35,35,73,65.9,113.3,92.6c57.1,37.8,118.9,67,184,87.1
		c68.4,21.1,140.5,32,214.2,32c63.8,0,126.4-8.2,186.5-24.1c68.8-18.2,134.4-46.6,194.9-84.3c46.6-29,90.2-63.6,130-103.4
		c136.6-136.6,211.8-318.3,211.8-511.5S1648.1,517.5,1511.5,380.9z M1504.4,1311.2c-34.1,41-73.1,77.8-116.1,109.5
		c-8.3,6.1-16.7,12-25.3,17.7c-48.5,32.5-101.6,58.5-158.1,77.1c-64.5,21.3-133.4,32.8-205,32.8c-53.4,0-105.4-6.5-155.2-18.6
		c-23.3-5.6-46.1-12.5-68.4-20.6c-33.5-12.3-65.9-27.1-96.7-44.5c-23.1-13-45.3-27.3-66.5-42.8
		c-163.1-119.4-269.1-312.2-269.1-529.4c0-361.7,294.2-655.9,655.9-655.9s655.9,294.2,655.9,655.9
		C1655.9,1051.4,1599,1197.5,1504.4,1311.2z"/>
	<path class="st0" d="M1499.1,1201.5c0,0-10.1-13.8-21.9-29.5c0,0-9.4,116.8-88.9,248.6c-3.1,5.2-6.3,10.4-9.7,15.6
		c-2.6,4.1-3.9,10.5-4,18.7c-0.3,13.2,2.4,31.3,6.8,52.3c21.7,102.4,86.6,273.7,71.1,291.4c-20.5,23.5-75.3,6.9-75.3,6.9
		s-91.9,7.5-134.2,1.5c-8.9-1.3-94.5,24.9-108.2,7.4c-8-10.2,25.4-122.4,51.6-222.8c7-26.9,13.5-53,18.5-76
		c8.4-38.8,12.7-69,8.4-80.2c-1.3-3.4-3.9-7.3-7.4-11.7c-1.1-1.5-2.4-3-3.8-4.5c-3.5-3.9-7.6-8.2-12.2-12.7c-0.9-1-1.8-1.9-2.8-2.8
		c-0.9-0.9-1.8-1.8-2.8-2.7c-0.7-0.7-1.5-1.5-2.2-2.2c-1.3-1.3-2.7-2.6-4.1-4c-1.6-1.6-3.3-3.2-5.1-4.8
		c-14.9-14.4-32.3-31.3-49.4-50.8c-1.1-1.3-2.3-2.6-3.3-3.9c-5-5.8-10-11.9-14.9-18.2c-3-3.8-5.9-7.7-8.7-11.8
		c-3.2-4.4-6.3-9-9.3-13.7c-1.4-2.2-2.8-4.4-4.1-6.6c-0.1-0.2-0.2-0.3-0.3-0.5c26.5-18.3,36.9-28.4,36.9-28.4
		c-0.1,0.5-0.2,1.1-0.3,1.7c-0.8,4.6-2.2,10.1-3,12.8c0,0.2-0.1,0.3-0.1,0.4c-0.1,0.3-0.2,0.6-0.2,0.8c-0.1,0.3-0.1,0.4-0.1,0.4
		c128.5-59.1,158.8-255,160.6-268.6c-1.9,9.7-26.7,130.5-128.1,209.5c0,0,6.3-17.4,9.4-35.7c-26.3,26.1-57.3,51.2-93.4,72.1
		c-1.5-3.4-2.9-6.9-4.2-10.4c-1.2-3.2-2.4-6.5-3.5-9.8c-2.6-8-4.9-16.1-6.7-24.5c-0.4-1.7-0.8-3.5-1.1-5.2c-0.4-2.5-0.9-4.9-1.2-7.4
		c-0.3-1.6-0.5-3.1-0.7-4.7c-0.4-2.8-0.7-5.7-1-8.6c-0.2-1.8-0.3-3.7-0.4-5.5c0-0.2,0-0.4-0.1-0.6c-0.1-1.4-0.2-2.8-0.2-4.3
		c-0.1-1.1-0.1-2.2-0.1-3.2c-0.8-27.7,3.8-57.6,15.5-89.6c1.4-3.8,2.7-7.5,4.1-11.2c1.3-3.8,2.6-7.5,3.9-11.1
		c1.1-3.3,2.2-6.6,3.2-9.8c1.1-3.3,2.2-6.6,3.1-9.7h0.1c82.1,3.9,170.3-21.2,194.9-28.9c-24.4,5.3-111.7,21.9-188.4,6.9
		c1.3-4.7,2.4-9.1,3.4-13.4c0.3-1.2,0.6-2.5,0.9-3.7c0.3-1.3,0.6-2.6,0.9-3.8c0.8-3.7,1.5-7.2,2.1-10.5
		c16.9-92.4-37.5-64.6-52.5-62.1c0,0,17.1-40.4,65.5-36.3c0,0,21-132.6,167.1-119.8c146,12.8,132.4,169.9,132.4,169.9s0,0,0.1,0.1
		C1404.6,935.6,1502.7,1039,1499.1,1201.5z"/>
	<circle class="st2" cx="1156.4" cy="872.3" r="16.3"/>
</g>
</svg>
